# xmcd
#
# Track frame offsets:
# 150
# 10951
# 23261
# 39845
# 49193
# 61030
# 81551
# 95351
# 107847
# 117972
# 130280
# 143630
# 156735
# 168031
# 178882
# 194464
# 207638
# 220421
# 231684
# 248417
# 262893
# 274536
# 289366
# 304974
# 320818
#
# Disc length: 4431 seconds
#
#
# Revision: 0
# Processed by: cddbd v1.5.2PL0 Copyright (c) Steve Scherf et al.
# Submitted via: FreeRIP 2.951 
#
DISCID=73114d19
DTITLE=Charley Pride - 25 Greatest Hits Platinum Pride
DYEAR=1998
DGENRE=Country
TTITLE0=Is Anybody Goin`To San Antone
TTITLE1=Crystal Chandeliers
TTITLE2=Roll On Mississippi
TTITLE3=Kiss An Angel Good Morning
TTITLE4=Lovesick Blues
TTITLE5=You`re So Good When You`re Bad
TTITLE6=Sea Of Heartbreak
TTITLE7=Lone Star Lonely
TTITLE8=Just Between You And Me
TTITLE9=Kaw-Liga
TTITLE10=All I Have To Offer You Is Me
TTITLE11=I`m So Afraid Of Losing You Again
TTITLE12=I`m Just Me
TTITLE13=Mississippi Cotton Picking Delta Town
TTITLE14=Burgers And Fries
TTITLE15=Mountain Of Love
TTITLE16=She`s Too Good To Be True
TTITLE17=The Most Beautiful Girl In The World
TTITLE18=Always On My Mind
TTITLE19=Please Help Me I`m Falling
TTITLE20=Walk On By
TTITLE21=I Love You Because
TTITLE22=Four In The Mornig
TTITLE23=It`s Just A Matter Of Time
TTITLE24=Ramblin`Rose
EXTD=Massive Records 7322242
EXTT0=
EXTT1=
EXTT2=
EXTT3=
EXTT4=
EXTT5=
EXTT6=
EXTT7=
EXTT8=
EXTT9=
EXTT10=
EXTT11=
EXTT12=
EXTT13=
EXTT14=
EXTT15=
EXTT16=
EXTT17=
EXTT18=
EXTT19=
EXTT20=
EXTT21=
EXTT22=
EXTT23=
EXTT24=
PLAYORDER=
